<svg xmlns="http://www.w3.org/2000/svg" viewBox="120 -80 1478 1606">
  <g transform="scale(1,-1) translate(0,-1446)">
    <path d="M721 533 1033 1179Q1084 1280 1133.0 1338.5Q1182 1397 1234.5 1421.5Q1287 1446 1348 1446Q1431 1446 1474.5 1401.5Q1518 1357 1518 1289Q1518 1208 1460.5 1152.0Q1403 1096 1295 1063Q1233 1044 1188.0 1022.5Q1143 1001 1109.0 965.5Q1075 930 1044 869L882 529Q862 491 853.5 462.5Q845 434 839 411L793 211Q786 186 793.0 173.0Q800 160 818 152L859 137Q887 124 896.0 109.0Q905 94 905 77Q905 40 879.5 20.0Q854 0 812 0H279Q234 0 217.0 17.5Q200 35 200 65Q200 116 257 141L302 155Q325 163 334.0 178.0Q343 193 352 223L409 439Q419 472 413.5 509.0Q408 546 401 582Q398 601 392.0 647.5Q386 694 378.0 757.5Q370 821 361.5 889.5Q353 958 344.5 1021.0Q336 1084 328.5 1130.5Q321 1177 316 1195Q309 1224 295.0 1238.5Q281 1253 250 1261Q227 1271 214.0 1286.0Q201 1301 201 1324Q201 1358 225.0 1379.0Q249 1400 294 1400H604Q658 1400 685.5 1379.5Q713 1359 720 1315Q725 1291 733.5 1232.0Q742 1173 753.0 1093.5Q764 1014 776.5 927.5Q789 841 800.5 761.0Q812 681 821.5 620.5Q831 560 837 534Z" fill="#498a49"/>
  </g>
</svg>
